<svg width="22" height="13" viewBox="0 0 22 13" fill="none" xmlns="http://www.w3.org/2000/svg">
<path d="M21.56 6.7525C21.61 6.6325 21.64 6.5025 21.64 6.3625C21.64 6.2225 21.61 6.1025 21.56 5.9725C21.51 5.8525 21.44 5.7425 21.34 5.6525L15.98 0.2925C15.59 -0.0975 14.96 -0.0975 14.57 0.2925C14.18 0.6825 14.18 1.3125 14.57 1.7025L18.22 5.3525H1C0.45 5.3525 0 5.8025 0 6.3525C0 6.9025 0.45 7.3525 1 7.3525H18.22L14.57 11.0025C14.18 11.3925 14.18 12.0225 14.57 12.4125C14.77 12.6125 15.02 12.7025 15.28 12.7025C15.54 12.7025 15.79 12.6025 15.99 12.4125L21.35 7.0525C21.43 6.9825 21.5 6.8725 21.56 6.7525Z" fill="#35B34A"/>
</svg>
