<svg width="46" height="43" viewBox="0 0 46 43" fill="none" xmlns="http://www.w3.org/2000/svg">
<path d="M22.8842 42.7343C22.2327 42.7343 21.6048 42.4868 21.1142 42.0365C19.2649 40.3396 17.4827 38.7447 15.9105 37.3386L15.9027 37.3315C11.2924 33.207 7.30997 29.6454 4.53996 26.1378C1.44255 22.2162 0 18.4975 0 14.4351C0 10.4877 1.28947 6.8464 3.6304 4.18196C5.99927 1.48468 9.25088 0 12.7852 0C15.4267 0 17.847 0.877201 19.9767 2.60581C21.0516 3.47832 22.026 4.54667 22.8842 5.79211C23.7423 4.54667 24.7167 3.47832 25.7916 2.60581C27.9214 0.877201 30.3405 0 32.9831 0C36.5175 0 39.7691 1.48585 42.1379 4.18196C44.4789 6.84757 45.7683 10.4889 45.7683 14.4351C45.7683 18.4975 44.3258 22.2162 41.2284 26.1378C38.4584 29.6466 34.4771 33.207 29.8667 37.3315C28.2912 38.74 26.5056 40.3372 24.653 42.0377C24.1647 42.4857 23.5356 42.7343 22.8842 42.7343Z" fill="#35B34A"/>
</svg>
