<svg width="49" height="49" viewBox="0 0 49 49" fill="none" xmlns="http://www.w3.org/2000/svg">
<path d="M25.0839 0.380232L32.151 15.4119C32.2465 15.6124 32.4293 15.7528 32.6394 15.7843L48.4435 18.196C48.9756 18.2762 49.1884 18.9665 48.8037 19.3589L37.3681 31.0594C37.2153 31.2169 37.1444 31.4432 37.1798 31.6638L39.8784 48.1849C39.9685 48.7434 39.4118 49.1673 38.9343 48.9038L24.8001 41.1044C24.6119 41.0013 24.3854 41.0013 24.1944 41.1044L10.0602 48.9038C9.58271 49.1673 9.02607 48.7405 9.11611 48.1849L11.8147 31.6638C11.8502 31.4432 11.782 31.2169 11.6264 31.0594L0.196298 19.3589C-0.188435 18.9636 0.0243962 18.2762 0.556475 18.196L16.3606 15.7843C16.5734 15.7528 16.7562 15.6124 16.849 15.4119L23.9161 0.380232C24.1562 -0.126744 24.8438 -0.126744 25.0839 0.380232Z" fill="#35B34A"/>
</svg>
